<svg version="1.0" xmlns="http://www.w3.org/2000/svg"
 width="580.000000pt" height="326.000000pt" viewBox="0 0 580.000000 326.000000"
 preserveAspectRatio="xMidYMid meet">

<g transform="translate(0.000000,326.000000) scale(0.100000,-0.100000)"
stroke="none">
<path fill="#fa5a15" d="M1605 3000 c-443 -47 -779 -274 -965 -650 -60 -123 -131 -367 -116
-405 3 -8 0 -15 -7 -18 -13 -4 -17 -406 -4 -511 13 -111 59 -272 111 -386 35
-79 130 -212 206 -290 182 -186 411 -292 714 -330 177 -23 504 2 681 50 199
55 357 169 405 295 31 82 32 222 0 314 -58 174 -154 242 -340 243 -96 0 -253
-19 -246 -31 2 -3 -10 -6 -27 -6 -18 -1 -76 -9 -129 -18 -54 -10 -146 -18
-205 -19 -174 -1 -280 36 -373 131 -99 102 -143 216 -142 371 2 222 109 382
303 452 57 20 82 22 219 22 134 -1 175 -5 304 -32 298 -64 439 -36 533 105 54
82 73 156 70 271 -3 120 -24 172 -100 246 -89 86 -266 160 -437 181 -30 4 -63
9 -72 11 -48 8 -313 12 -383 4z"/>
<path fill="#eab308" d="M2865 2250 c-87 -21 -176 -83 -207 -146 -50 -97 -48 -217 5 -379 109
-332 195 -573 202 -567 5 4 5 2 2 -4 -4 -7 2 -38 12 -70 162 -500 317 -674
601 -674 218 0 340 111 429 387 32 100 39 113 59 113 13 0 25 -8 28 -17 45
-136 94 -234 152 -311 23 -31 122 -112 137 -112 3 0 24 -9 48 -19 59 -27 135
-41 226 -41 131 0 219 39 322 142 49 49 129 159 129 177 0 5 4 11 9 13 16 6
103 203 197 448 52 135 98 254 104 265 56 121 105 349 96 443 -14 131 -96 251
-212 308 -54 26 -69 29 -164 29 -147 0 -210 -25 -302 -118 -77 -78 -98 -128
-98 -237 0 -130 27 -192 154 -360 118 -156 188 -351 165 -460 -17 -80 -78
-130 -159 -130 -53 0 -90 20 -128 67 -56 72 -69 107 -257 683 -42 129 -79 242
-82 250 -3 8 -7 22 -9 30 -2 8 -8 16 -14 18 -5 2 -8 8 -5 13 9 13 -21 94 -51
139 -35 53 -108 106 -167 121 -136 34 -317 -37 -374 -146 -23 -44 -43 -124
-43 -175 0 -62 16 -122 114 -420 97 -296 106 -329 106 -407 0 -110 -57 -173
-158 -173 -54 0 -57 2 -104 51 -26 28 -48 58 -48 65 0 8 -4 14 -8 14 -4 0 -8
8 -9 18 -1 9 -36 116 -78 237 -42 121 -78 227 -80 235 -2 8 -20 62 -40 120
-20 58 -38 112 -40 120 -2 8 -20 62 -40 120 -20 58 -38 112 -40 121 -9 42 -58
120 -98 155 -73 64 -180 88 -282 64z"/>
</g>
</svg>
